#VRML V2.0 utf8
WorldInfo {
 title "WallClock.x3d"
 info ["This Web3D Content was created with Vivaty Studio, a Web3D authoring tool"
 "www.mediamachines.com"
 "This Web3D Content was created with Vivaty Studio, a Web3D authoring tool"]
}
## Vizthumbnail  Thumb_conclusion_wrl25600731587046588.jpg
DEF Import_Untitled2_wrl Group {
 children [
  NavigationInfo {
   avatarSize [
    .25 1.6 .75
   ]
   visibilityLimit 0
   speed 1
   headlight TRUE
   type ["EXAMINE"
   "ANY"]
  }
  Transform {
   rotation 0 0 1 -.523
   center 0 0 .4
   children [
    DEF dad_A1 Transform {
     translation .94177 .54743 -.00285
     rotation -.259 .966 0 3.142
     scale .5 .5 .5
     children [
      DEF A1 Shape {
       appearance Appearance {
        material DEF Blue Material {
         ambientIntensity 0.200
         shininess 0.200
         diffuseColor 0 0 1
        }
       }
       geometry DEF GeoExtrusion5 Extrusion {
        creaseAngle 0.524
        crossSection [
         .03664 -.00366
         -.68882 -.34807
         -1.38497 -.00366
         .03664 -.00366
        ]
        spine [
         0 0 0
         0 .1 0
        ]
       }
      }
     ]
    }
   ]
  }
  Transform {
   rotation 0 0 1 -1.047
   center 0 0 .4
   children [
    DEF dad_A2 Transform {
     translation .50152 .96811 -.00013
     rotation 0 0 -1 2.095
     scale .5 .5 .5
     children [
      DEF A2 Shape {
       appearance Appearance {
        material DEF Green Material {
         ambientIntensity 0.200
         shininess 0.200
         diffuseColor 0 1 0
        }
       }
       geometry DEF GeoExtrusion6 Extrusion {
        creaseAngle 0.524
        crossSection [
         .03664 -.00366
         -.68882 -.34807
         -1.38497 -.00366
         .03664 -.00366
        ]
        spine [
         0 0 0
         0 .1 0
        ]
       }
      }
     ]
    }
   ]
  }
  Transform {
   rotation 0 0 1 -1.57
   center 0 0 .4
   children [
    DEF dad_A3 Transform {
     translation .00788 1.78895 .00015
     rotation 0 0 1 1.57
     scale .5 .5 .5
     children [
      DEF A3 Shape {
       appearance Appearance {
        material DEF Cyan Material {
         ambientIntensity 0.200
         shininess 0.200
         diffuseColor 0 1 1
        }
       }
       geometry DEF GeoExtrusion9 Extrusion {
        creaseAngle 0.524
        crossSection [
         0 .00366
         -.73279 -1.19078
         -.73279 -.38471
         0 .00366
        ]
        spine [
         0 0 0
         0 .1 0
        ]
       }
      }
     ]
    }
   ]
  }
  Transform {
   rotation 0 0 1 -2.093
   center 0 0 .4
   children [
    DEF dad_A4 Transform {
     translation -.93476 1.52625 .00473
     rotation 0 -0 -1 1.049
     scale .5 .5 .5
     children [
      DEF A4 Shape {
       appearance Appearance {
        material DEF Purple Material {
         ambientIntensity 0.200
         shininess 0.200
         diffuseColor .9176 0 .874
        }
       }
       geometry DEF GeoExtrusion10 Extrusion {
        creaseAngle 0.524
        crossSection [
         0 .00366
         -.73279 -1.19078
         -.73279 -.38471
         0 .00366
        ]
        spine [
         0 0 0
         0 .1 0
        ]
       }
      }
     ]
    }
   ]
  }
  Transform {
   rotation 0 0 1 -2.617
   center 0 0 .4
   children [
    DEF dad_A5 Transform {
     translation -1.55283 .89718 .00383
     rotation -.966 .259 0 3.142
     scale .5 .5 .5
     children [
      DEF A5 Shape {
       appearance Appearance {
        material DEF Rust Material {
         ambientIntensity 0.200
         shininess 0.200
         diffuseColor .69 .47 .46
        }
       }
       geometry DEF GeoExtrusion12 Extrusion {
        creaseAngle 0.524
        crossSection [
         0 .00366
         -.73279 -1.19078
         -.73279 -.38471
         0 .00366
        ]
        spine [
         0 0 0
         0 .1 0
        ]
       }
      }
     ]
    }
   ]
  }
  Transform {
   rotation 0 0 1 -3.14
   center 0 0 .4
   children [
    DEF dad_A6 Transform {
     translation -1.77723 -.04814 .00061
     rotation .001 1 0 3.142
     scale .5 .5 .5
     children [
      DEF A6 Shape {
       appearance Appearance {
        material DEF Black Material {
         ambientIntensity 0.200
         shininess 0.200
         diffuseColor 0 0 0
        }
       }
       geometry DEF GeoExtrusion13 Extrusion {
        creaseAngle 0.524
        crossSection [
         0 .00366
         -.73279 -1.19078
         -.73279 -.38471
         0 .00366
        ]
        spine [
         0 0 0
         0 .1 0
        ]
       }
      }
     ]
    }
   ]
  }
  Transform {
   rotation 0 0 1 -3.663
   center 0 0 .4
   children [
    DEF dad_A7 Transform {
     translation -1.23531 -.70235 -.59414
     rotation .966 .258 0 3.141
     scale .5 .5 .5
     children [
      DEF A7 Shape {
       appearance Appearance {
        material DEF White Material {
         ambientIntensity 0.200
         shininess 0.200
         diffuseColor 1 1 1
        }
       }
       geometry DEF GeoExtrusion14 Extrusion {
        creaseAngle 0.524
        crossSection [
         0 .00366
         -.73279 -1.19078
         -.73279 -.38471
         0 .00366
        ]
        spine [
         0 0 0
         0 .1 0
        ]
       }
      }
     ]
    }
   ]
  }
  Transform {
   rotation 0 0 1 -4.186
   center 0 0 .4
   children [
    DEF dad_A8 Transform {
     translation -1.08009 -1.86216 .59301
     rotation .001 -0 -1 2.097
     scale .5 .5 .5
     children [
      DEF A8 Shape {
       appearance Appearance {
        material DEF Shiny_Red Material {
         ambientIntensity 0.200
         shininess 0.100
         diffuseColor 1 0 0
         specularColor 1 0 0
        }
       }
       geometry DEF GeoExtrusion15 Extrusion {
        creaseAngle 0.524
        crossSection [
         0 .00366
         -.73279 -1.19078
         -.73279 -.38471
         0 .00366
        ]
        spine [
         0 0 0
         0 .1 0
        ]
       }
      }
     ]
    }
   ]
  }
  Transform {
   rotation 0 0 1 -4.71
   center 0 0 .4
   children [
    DEF dad_A9 Transform {
     translation .04044 -2.15452 -.58963
     rotation -.706 .708 -0 3.141
     scale .5 .5 .5
     children [
      DEF A9 Shape {
       appearance Appearance {
        material DEF Shiny_Green Material {
         ambientIntensity 0.200
         shininess 0.100
         diffuseColor 0 1 0
         specularColor 0 1 0
        }
       }
       geometry DEF GeoExtrusion16 Extrusion {
        creaseAngle 0.524
        crossSection [
         0 .00366
         -.73279 -1.19078
         -.73279 -.38471
         0 .00366
        ]
        spine [
         0 0 0
         0 .1 0
        ]
       }
      }
     ]
    }
   ]
  }
  Transform {
   rotation 0 0 1 -5.233
   center 0 0 .4
   children [
    DEF dad_A10 Transform {
     translation 1.2811 -2.126 -.00268
     rotation -.865 .501 0 3.142
     scale .5 .5 .5
     children [
      DEF A10 Shape {
       appearance Appearance {
        material USE Green
       }
       geometry DEF GeoExtrusion4 Extrusion {
        creaseAngle 0.524
        crossSection [
         .03664 -.00366
         -.68882 -.34807
         -1.38497 -.00366
         .03664 -.00366
        ]
        spine [
         0 0 0
         0 .1 0
        ]
       }
      }
     ]
    }
   ]
  }
  Transform {
   rotation 0 0 1 -5.756
   center 0 0 .4
   children [
    DEF dad_A11 Transform {
     translation 2.14399 -1.24672 .00148
     rotation 0 -0 -1 .527
     scale .5 .5 .5
     children [
      DEF A11 Shape {
       appearance Appearance {
        material DEF Red Material {
         ambientIntensity 0.200
         shininess 0.200
         diffuseColor 1 0 0
        }
       }
       geometry DEF GeoExtrusion3 Extrusion {
        creaseAngle 0.524
        crossSection [
         .03664 -.00366
         -.68882 -.34807
         -1.38497 -.00366
         .03664 -.00366
        ]
        spine [
         0 0 0
         0 .1 0
        ]
       }
      }
     ]
    }
   ]
  }
  Transform {
   rotation 0 0 1 -6.28
   center 0 0 .4
   children [
    DEF dad_A12 Transform {
     translation 1.41558 .04687 .59736
     rotation 0 0 1 3.138
     scale .5 .5 .5
     children [
      DEF A12 Shape {
       appearance Appearance {
        material USE Rust
       }
       geometry DEF GeoExtrusion11 Extrusion {
        creaseAngle 0.524
        crossSection [
         0 .00366
         -.73279 -1.19078
         -.73279 -.38471
         0 .00366
        ]
        spine [
         0 0 0
         0 .1 0
        ]
       }
      }
     ]
    }
   ]
  }
  DEF cm TimeSensor {
   cycleInterval 1.000
   loop TRUE
   startTime -1.000
  }
  DEF refresh TimeSensor {
   cycleInterval 0.100
   loop TRUE
   startTime -1.000
  }
  DEF cm1p ColorInterpolator {
   key [
   0 .0833 .0833 .167 .167 1
   ]
   keyValue [
   .3 .2 .8
   .3 .2 .8
   1 1 0
   1 1 0
   .3 .2 .8
   .3 .2 .8
   ]
  }
  DEF cm2p ColorInterpolator {
   key [
   0 .167 .167 .25 .25 1
   ]
   keyValue [
   .3 .2 .8
   .3 .2 .8
   1 1 0
   1 1 0
   .3 .2 .8
   .3 .2 .8
   ]
  }
  DEF cm3p ColorInterpolator {
   key [
   0 .25 .25 .333 .333 1
   ]
   keyValue [
   .3 .2 .8
   .3 .2 .8
   1 1 0
   1 1 0
   .3 .2 .8
   .3 .2 .8
   ]
  }
  DEF cm4p ColorInterpolator {
   key [
   0 .333 .333 .417 .417 1
   ]
   keyValue [
   .3 .2 .8
   .3 .2 .8
   1 1 0
   1 1 0
   .3 .2 .8
   .3 .2 .8
   ]
  }
  DEF cm5p ColorInterpolator {
   key [
   0 .417 .417 .5 .5 1
   ]
   keyValue [
   .3 .2 .8
   .3 .2 .8
   1 1 0
   1 1 0
   .3 .2 .8
   .3 .2 .8
   ]
  }
  DEF cm6p ColorInterpolator {
   key [
   0 .5 .5 .583 .583 1
   ]
   keyValue [
   .3 .2 .8
   .3 .2 .8
   1 1 0
   1 1 0
   .3 .2 .8
   .3 .2 .8
   ]
  }
  DEF cm7p ColorInterpolator {
   key [
   0 .583 .583 .667 .667 1
   ]
   keyValue [
   .3 .2 .8
   .3 .2 .8
   1 1 0
   1 1 0
   .3 .2 .8
   .3 .2 .8
   ]
  }
  DEF cm8p ColorInterpolator {
   key [
   0 .667 .667 .75 .75 1
   ]
   keyValue [
   .3 .2 .8
   .3 .2 .8
   1 1 0
   1 1 0
   .3 .2 .8
   .3 .2 .8
   ]
  }
  DEF cm9p ColorInterpolator {
   key [
   0 .75 .75 .833 .833 1
   ]
   keyValue [
   .3 .2 .8
   .3 .2 .8
   1 1 0
   1 1 0
   .3 .2 .8
   .3 .2 .8
   ]
  }
  DEF cm10p ColorInterpolator {
   key [
   0 .833 .833 .917 .917 1
   ]
   keyValue [
   .3 .2 .8
   .3 .2 .8
   1 1 0
   1 1 0
   .3 .2 .8
   .3 .2 .8
   ]
  }
  DEF cm11p ColorInterpolator {
   key [
   0 .917 .917 1 1
   ]
   keyValue [
   .3 .2 .8
   .3 .2 .8
   1 1 0
   1 1 0
   .3 .2 .8
   ]
  }
  DEF cm12p ColorInterpolator {
   key [
   0 .0833 .0833 1
   ]
   keyValue [
   1 1 0
   1 1 0
   .3 .2 .8
   .3 .2 .8
   ]
  }
 ]
}
DEF vizx_init TimeSensor {
 cycleInterval 0.100
 loop TRUE
}
ROUTE vizx_init.cycleTime TO cm.startTime
ROUTE vizx_init.cycleTime TO refresh.startTime
ROUTE vizx_init.cycleTime TO vizx_init.stopTime
ROUTE cm.fraction_changed TO cm1p.set_fraction
ROUTE cm1p.value_changed TO Blue.set_diffuseColor
ROUTE cm.fraction_changed TO cm2p.set_fraction
ROUTE cm2p.value_changed TO Green.set_diffuseColor
ROUTE cm.fraction_changed TO cm3p.set_fraction
ROUTE cm.fraction_changed TO cm4p.set_fraction
ROUTE cm.fraction_changed TO cm5p.set_fraction
ROUTE cm.fraction_changed TO cm6p.set_fraction
ROUTE cm.fraction_changed TO cm7p.set_fraction
ROUTE cm.fraction_changed TO cm8p.set_fraction
ROUTE cm.fraction_changed TO cm9p.set_fraction
ROUTE cm.fraction_changed TO cm10p.set_fraction
ROUTE cm.fraction_changed TO cm12p.set_fraction
ROUTE cm3p.value_changed TO Cyan.set_diffuseColor
ROUTE cm4p.value_changed TO Purple.set_diffuseColor
ROUTE cm5p.value_changed TO Rust.set_diffuseColor
ROUTE cm6p.value_changed TO Black.set_diffuseColor
ROUTE cm7p.value_changed TO White.set_diffuseColor
ROUTE cm8p.value_changed TO Shiny_Red.set_diffuseColor
ROUTE cm9p.value_changed TO Shiny_Green.set_diffuseColor
ROUTE cm10p.value_changed TO Green.set_diffuseColor
ROUTE cm12p.value_changed TO Red.set_diffuseColor
ROUTE cm.fraction_changed TO cm11p.set_fraction
ROUTE cm11p.value_changed TO Rust.set_diffuseColor
